<svg width="12" height="12" viewBox="0 0 12 12" fill="none" xmlns="http://www.w3.org/2000/svg">
<path d="M5.16675 6.83336H1.00008C0.763973 6.83336 0.566195 6.75336 0.406751 6.59336C0.247307 6.43336 0.167306 6.23558 0.166751 6.00002C0.166195 5.76447 0.246195 5.56669 0.406751 5.40669C0.567307 5.24669 0.765084 5.16669 1.00008 5.16669H5.16675V1.00002C5.16675 0.763912 5.24675 0.566134 5.40675 0.40669C5.56675 0.247246 5.76453 0.167245 6.00008 0.16669C6.23564 0.166134 6.4337 0.246134 6.59425 0.40669C6.75481 0.567246 6.83453 0.765023 6.83342 1.00002V5.16669H11.0001C11.2362 5.16669 11.4343 5.24669 11.5943 5.40669C11.7543 5.56669 11.834 5.76447 11.8334 6.00002C11.8329 6.23558 11.7529 6.43363 11.5934 6.59419C11.434 6.75475 11.2362 6.83447 11.0001 6.83336H6.83342V11C6.83342 11.2361 6.75342 11.4342 6.59342 11.5942C6.43342 11.7542 6.23564 11.8339 6.00008 11.8334C5.76453 11.8328 5.56675 11.7528 5.40675 11.5934C5.24675 11.4339 5.16675 11.2361 5.16675 11V6.83336Z" fill="#0288D1"/>
</svg>
