<svg width="24" height="22" viewBox="0 0 24 22" fill="none" xmlns="http://www.w3.org/2000/svg">
<path fill-rule="evenodd" clip-rule="evenodd" d="M18.5289 4.44507C18.1023 3.83124 16.9617 2.96849 15.1141 3.34065C14.0363 3.55694 13.3922 4.08982 12.9826 4.79307C12.5464 5.54224 12.335 6.56086 12.335 7.74623C12.335 8.0667 12.2076 8.37405 11.981 8.60066C11.7544 8.82726 11.4471 8.95457 11.1266 8.95457C8.2677 8.95457 5.54653 8.10511 3.25674 5.80807C3.08367 6.74003 3.01557 7.68844 3.05374 8.63557C3.11778 9.94782 3.43074 11.2637 4.17387 12.3911C4.90491 13.4991 6.1072 14.5141 8.11787 15.1521C8.31489 15.2146 8.49258 15.3266 8.63396 15.4774C8.77534 15.6282 8.87568 15.8127 8.92539 16.0133C8.97509 16.214 8.9725 16.424 8.91785 16.6233C8.86321 16.8227 8.75834 17.0047 8.61328 17.1519C7.96943 17.8127 7.23947 18.3837 6.44312 18.8496C7.72395 18.9825 8.95887 18.9922 10.1044 18.8883C12.4244 18.678 14.2719 18.0147 15.4271 17.0758C17.8595 15.1038 19.1608 12.1627 18.9192 7.23511C18.8781 6.42553 19.6599 5.5519 20.0369 4.88853C19.4677 4.99486 18.8974 4.97553 18.5289 4.44507ZM2.55107 2.02236C2.76985 1.99694 2.99141 2.03179 3.19181 2.12315C3.39221 2.21451 3.56383 2.35891 3.68812 2.54074C5.47162 5.14953 7.61278 6.23461 9.98958 6.48111C10.1056 5.4649 10.3799 4.46078 10.8958 3.57628C11.6522 2.27853 12.8823 1.32394 14.6392 0.97111C17.068 0.482943 18.9167 1.36261 19.9885 2.43924L22.1539 2.03444C22.3805 1.99199 22.6145 2.01523 22.8283 2.10144C23.0421 2.18765 23.2268 2.33322 23.3605 2.52098C23.4943 2.70873 23.5715 2.93083 23.5832 3.16107C23.5948 3.3913 23.5404 3.62007 23.4262 3.82036L21.3479 7.47194C21.5376 12.7415 20.0731 16.4197 16.9508 18.9535C15.2954 20.2972 12.9246 21.0597 10.3231 21.2953C7.70099 21.5321 4.73695 21.2457 1.79103 20.3854C1.53933 20.312 1.31833 20.1587 1.1614 19.9486C1.00447 19.7386 0.920116 19.4832 0.921071 19.221C0.922026 18.9588 1.00824 18.704 1.1667 18.4952C1.32515 18.2863 1.54726 18.1346 1.79949 18.063C3.28091 17.6413 4.40949 17.2776 5.42812 16.6408C3.97933 15.8723 2.91237 14.8669 2.15716 13.7214C1.10833 12.1289 0.719242 10.3526 0.641908 8.75157C0.564575 7.15053 0.795367 5.66669 1.03945 4.59732C1.17841 3.98711 1.34033 3.37569 1.56387 2.79086C1.64272 2.58471 1.77653 2.40409 1.95078 2.26861C2.12503 2.13313 2.33185 2.04797 2.55107 2.02236Z" fill="black"/>
</svg>
