<svg width="24" height="24" viewBox="0 0 24 24" fill="none" xmlns="http://www.w3.org/2000/svg">
<path d="M12.0011 8.50004C11.0728 8.50004 10.1826 8.86879 9.52621 9.52517C8.86983 10.1815 8.50109 11.0718 8.50109 12C8.50109 12.9283 8.86983 13.8185 9.52621 14.4749C10.1826 15.1313 11.0728 15.5 12.0011 15.5C12.9293 15.5 13.8196 15.1313 14.476 14.4749C15.1323 13.8185 15.5011 12.9283 15.5011 12C15.5011 11.0718 15.1323 10.1815 14.476 9.52517C13.8196 8.86879 12.9293 8.50004 12.0011 8.50004ZM12.0011 6.16671C13.5482 6.16671 15.0319 6.78129 16.1259 7.87525C17.2198 8.96921 17.8344 10.4529 17.8344 12C17.8344 13.5471 17.2198 15.0309 16.1259 16.1248C15.0319 17.2188 13.5482 17.8334 12.0011 17.8334C10.454 17.8334 8.97026 17.2188 7.8763 16.1248C6.78233 15.0309 6.16775 13.5471 6.16775 12C6.16775 10.4529 6.78233 8.96921 7.8763 7.87525C8.97026 6.78129 10.454 6.16671 12.0011 6.16671ZM19.5844 5.87504C19.5844 6.26181 19.4308 6.63275 19.1573 6.90624C18.8838 7.17973 18.5129 7.33337 18.1261 7.33337C17.7393 7.33337 17.3684 7.17973 17.0949 6.90624C16.8214 6.63275 16.6678 6.26181 16.6678 5.87504C16.6678 5.48827 16.8214 5.11733 17.0949 4.84384C17.3684 4.57035 17.7393 4.41671 18.1261 4.41671C18.5129 4.41671 18.8838 4.57035 19.1573 4.84384C19.4308 5.11733 19.5844 5.48827 19.5844 5.87504ZM12.0011 2.66671C9.11475 2.66671 8.64342 2.67487 7.30059 2.73437C6.38592 2.77754 5.77225 2.90004 5.20292 3.12171C4.72672 3.29714 4.29609 3.57745 3.94292 3.94187C3.57807 4.29493 3.29736 4.72557 3.12159 5.20187C2.89992 5.77354 2.77742 6.38604 2.73542 7.29954C2.67475 8.58754 2.66659 9.03787 2.66659 12C2.66659 14.8875 2.67475 15.3577 2.73425 16.7005C2.77742 17.614 2.89992 18.2289 3.12042 18.797C3.31875 19.3045 3.55209 19.6697 3.93942 20.057C4.33259 20.449 4.69775 20.6835 5.19942 20.8772C5.77575 21.1 6.38942 21.2237 7.29942 21.2657C8.58742 21.3264 9.03775 21.3334 11.9999 21.3334C14.8874 21.3334 15.3576 21.3252 16.7004 21.2657C17.6128 21.2225 18.2264 21.1 18.7969 20.8795C19.2731 20.7041 19.7037 20.4238 20.0569 20.0594C20.4501 19.6674 20.6846 19.3022 20.8783 18.7994C21.0999 18.2254 21.2236 17.6117 21.2656 16.6994C21.3263 15.4125 21.3333 14.961 21.3333 12C21.3333 9.11371 21.3251 8.64237 21.2656 7.29954C21.2224 6.38721 21.0988 5.77121 20.8783 5.20187C20.7028 4.72568 20.4225 4.29505 20.0581 3.94187C19.705 3.57703 19.2744 3.29631 18.7981 3.12054C18.2264 2.89887 17.6128 2.77637 16.7004 2.73437C15.4136 2.67371 14.9633 2.66671 11.9999 2.66671M11.9999 0.333374C15.1698 0.333374 15.5653 0.345041 16.8101 0.403374C18.0514 0.461707 18.8984 0.656541 19.6416 0.945874C20.4116 1.24221 21.0603 1.64354 21.7089 2.29104C22.3024 2.87406 22.7615 3.57959 23.0541 4.35837C23.3423 5.10154 23.5383 5.94854 23.5966 7.19104C23.6514 8.43471 23.6666 8.83021 23.6666 12C23.6666 15.1699 23.6549 15.5654 23.5966 16.809C23.5383 18.0527 23.3423 18.8974 23.0541 19.6417C22.7615 20.4205 22.3024 21.126 21.7089 21.709C21.1259 22.3025 20.4204 22.7616 19.6416 23.0542C18.8984 23.3424 18.0514 23.5384 16.8101 23.5967C15.5653 23.6515 15.1698 23.6667 11.9999 23.6667C8.83008 23.6667 8.43458 23.655 7.18975 23.5967C5.94842 23.5384 5.10258 23.3424 4.35825 23.0542C3.57947 22.7616 2.87394 22.3025 2.29092 21.709C1.69744 21.126 1.23837 20.4205 0.945752 19.6417C0.656419 18.8985 0.461585 18.0515 0.403252 16.809C0.347252 15.5654 0.333252 15.1699 0.333252 12C0.333252 8.83021 0.344919 8.43471 0.403252 7.19104C0.461585 5.94737 0.656419 5.10271 0.945752 4.35837C1.23837 3.57959 1.69744 2.87406 2.29092 2.29104C2.87394 1.69756 3.57947 1.23849 4.35825 0.945874C5.10142 0.656541 5.94725 0.461707 7.18975 0.403374C8.43575 0.348541 8.83125 0.333374 12.0011 0.333374" fill="black"/>
</svg>
